<svg viewBox="0 0 510 510" fill="none" xmlns="http://www.w3.org/2000/svg">

  <!-- Dark background -->
  <rect width="510" height="510" fill="#0b1e2e"/>
  <circle cx="255" cy="255" r="230" fill="none" stroke="white" stroke-opacity="0.02" stroke-width="80"/>

  <!-- ====== PANEL SOLAR (255, 75) ====== -->
  <circle cx="255" cy="75" r="47" fill="white" fill-opacity="0.03" stroke="white" stroke-opacity="0.08" stroke-width="1.5"/>
  <rect x="228" y="46" width="54" height="35" rx="3" fill="none" stroke="white" stroke-width="2.5"/>
  <line x1="228" y1="57.7" x2="282" y2="57.7" stroke="white" stroke-width="1.5"/>
  <line x1="228" y1="69.3" x2="282" y2="69.3" stroke="white" stroke-width="1.5"/>
  <line x1="246" y1="46" x2="246" y2="81" stroke="white" stroke-width="1.5"/>
  <line x1="264" y1="46" x2="264" y2="81" stroke="white" stroke-width="1.5"/>
  <line x1="241" y1="81" x2="233" y2="96" stroke="white" stroke-width="2.5" stroke-linecap="round"/>
  <line x1="269" y1="81" x2="277" y2="96" stroke="white" stroke-width="2.5" stroke-linecap="round"/>
  <line x1="226" y1="96" x2="284" y2="96" stroke="white" stroke-width="2.5" stroke-linecap="round"/>
  <!-- Sun -->
  <circle cx="292" cy="41" r="11" fill="none" stroke="white" stroke-width="2"/>
  <line x1="292" y1="22" x2="292" y2="28" stroke="white" stroke-width="1.5" stroke-linecap="round"/>
  <line x1="292" y1="54" x2="292" y2="60" stroke="white" stroke-width="1.5" stroke-linecap="round"/>
  <line x1="273" y1="41" x2="279" y2="41" stroke="white" stroke-width="1.5" stroke-linecap="round"/>
  <line x1="305" y1="41" x2="311" y2="41" stroke="white" stroke-width="1.5" stroke-linecap="round"/>
  <line x1="279" y1="27" x2="283" y2="31" stroke="white" stroke-width="1.5" stroke-linecap="round"/>
  <line x1="301" y1="51" x2="305" y2="55" stroke="white" stroke-width="1.5" stroke-linecap="round"/>
  <line x1="279" y1="55" x2="283" y2="51" stroke="white" stroke-width="1.5" stroke-linecap="round"/>
  <line x1="301" y1="31" x2="305" y2="27" stroke="white" stroke-width="1.5" stroke-linecap="round"/>
  <text x="255" y="118" text-anchor="middle" font-family="Montserrat,Arial,sans-serif" font-size="12" font-weight="700" fill="white" letter-spacing="2.5">PANEL SOLAR</text>

  <!-- Arrow: Panel Solar → Inversor -->
  <line x1="255" y1="128" x2="255" y2="196" stroke="white" stroke-width="2" stroke-dasharray="7 5" opacity="0.75" stroke-linecap="round"/>
  <polygon points="255,209 248,194 262,194" fill="white" opacity="0.75"/>

  <!-- ====== MEDIDOR (100, 250) ====== -->
  <circle cx="100" cy="250" r="47" fill="white" fill-opacity="0.03" stroke="white" stroke-opacity="0.08" stroke-width="1.5"/>
  <rect x="72" y="222" width="56" height="56" rx="4" fill="none" stroke="white" stroke-width="2.5"/>
  <rect x="78" y="228" width="44" height="14" rx="2" fill="none" stroke="white" stroke-width="1.5" opacity="0.6"/>
  <rect x="81" y="231" width="7" height="8" rx="1" fill="none" stroke="white" stroke-width="1" opacity="0.7"/>
  <rect x="91" y="231" width="7" height="8" rx="1" fill="none" stroke="white" stroke-width="1" opacity="0.7"/>
  <rect x="101" y="231" width="7" height="8" rx="1" fill="none" stroke="white" stroke-width="1" opacity="0.7"/>
  <rect x="111" y="231" width="7" height="8" rx="1" fill="none" stroke="white" stroke-width="1" opacity="0.7"/>
  <line x1="78" y1="248" x2="122" y2="248" stroke="white" stroke-width="1" opacity="0.35"/>
  <line x1="78" y1="260" x2="122" y2="260" stroke="white" stroke-width="1" opacity="0.35"/>
  <circle cx="87" cy="267" r="4" fill="none" stroke="white" stroke-width="1.5" opacity="0.7"/>
  <circle cx="100" cy="267" r="4" fill="none" stroke="white" stroke-width="1.5" opacity="0.7"/>
  <circle cx="113" cy="267" r="4" fill="none" stroke="white" stroke-width="1.5" opacity="0.7"/>
  <text x="100" y="311" text-anchor="middle" font-family="Montserrat,Arial,sans-serif" font-size="12" font-weight="700" fill="white" letter-spacing="2.5">MEDIDOR</text>

  <!-- Bidireccional: Medidor ↔ Inversor -->
  <line x1="151" y1="242" x2="201" y2="242" stroke="white" stroke-width="2" stroke-dasharray="7 5" opacity="0.75"/>
  <polygon points="214,242 199,235 199,249" fill="white" opacity="0.75"/>
  <line x1="203" y1="258" x2="153" y2="258" stroke="white" stroke-width="2" stroke-dasharray="7 5" opacity="0.75"/>
  <polygon points="140,258 155,251 155,265" fill="white" opacity="0.75"/>

  <!-- ====== INVERSOR (255, 250) ====== -->
  <circle cx="255" cy="250" r="47" fill="white" fill-opacity="0.03" stroke="white" stroke-opacity="0.08" stroke-width="1.5"/>
  <rect x="227" y="222" width="56" height="56" rx="4" fill="none" stroke="white" stroke-width="2.5"/>
  <rect x="233" y="228" width="44" height="22" rx="2" fill="none" stroke="white" stroke-width="1.5" opacity="0.55"/>
  <path d="M238 239 C242 231 246 231 250 239 C254 247 258 247 262 239 C266 231 270 231 272 239" stroke="white" stroke-width="2" stroke-linecap="round" fill="none"/>
  <circle cx="242" cy="265" r="3" fill="white" opacity="0.45"/>
  <circle cx="255" cy="265" r="3" fill="white" opacity="0.45"/>
  <circle cx="268" cy="265" r="3" fill="white" opacity="0.45"/>
  <text x="255" y="311" text-anchor="middle" font-family="Montserrat,Arial,sans-serif" font-size="12" font-weight="700" fill="white" letter-spacing="2.5">INVERSOR</text>

  <!-- Arrow: Inversor → Casa -->
  <line x1="305" y1="250" x2="357" y2="250" stroke="white" stroke-width="2" stroke-dasharray="7 5" opacity="0.75"/>
  <polygon points="370,250 355,243 355,257" fill="white" opacity="0.75"/>

  <!-- ====== CASA (410, 250) ====== -->
  <circle cx="410" cy="250" r="47" fill="white" fill-opacity="0.03" stroke="white" stroke-opacity="0.08" stroke-width="1.5"/>
  <path d="M376 254 L410 216 L444 254" fill="none" stroke="white" stroke-width="2.5" stroke-linejoin="round" stroke-linecap="round"/>
  <rect x="383" y="254" width="54" height="40" fill="none" stroke="white" stroke-width="2.5"/>
  <rect x="402" y="266" width="16" height="28" rx="1.5" fill="none" stroke="white" stroke-width="2"/>
  <rect x="387" y="259" width="11" height="10" rx="1" fill="none" stroke="white" stroke-width="1.5"/>
  <rect x="422" y="259" width="11" height="10" rx="1" fill="none" stroke="white" stroke-width="1.5"/>
  <text x="410" y="311" text-anchor="middle" font-family="Montserrat,Arial,sans-serif" font-size="12" font-weight="700" fill="white" letter-spacing="2.5">CASA</text>

  <!-- Bidireccional: Medidor ↕ Red Eléctrica -->
  <line x1="89" y1="301" x2="89" y2="358" stroke="white" stroke-width="2" stroke-dasharray="7 5" opacity="0.75" stroke-linecap="round"/>
  <polygon points="89,371 82,356 96,356" fill="white" opacity="0.75"/>
  <line x1="111" y1="360" x2="111" y2="303" stroke="white" stroke-width="2" stroke-dasharray="7 5" opacity="0.75" stroke-linecap="round"/>
  <polygon points="111,290 104,305 118,305" fill="white" opacity="0.75"/>

  <!-- Bidireccional: Inversor ↕ Baterías -->
  <line x1="244" y1="301" x2="244" y2="358" stroke="white" stroke-width="2" stroke-dasharray="7 5" opacity="0.75" stroke-linecap="round"/>
  <polygon points="244,371 237,356 251,356" fill="white" opacity="0.75"/>
  <line x1="266" y1="360" x2="266" y2="303" stroke="white" stroke-width="2" stroke-dasharray="7 5" opacity="0.75" stroke-linecap="round"/>
  <polygon points="266,290 259,305 273,305" fill="white" opacity="0.75"/>

  <!-- ====== RED ELÉCTRICA (100, 420) ====== -->
  <circle cx="100" cy="420" r="47" fill="white" fill-opacity="0.03" stroke="white" stroke-opacity="0.08" stroke-width="1.5"/>
  <line x1="100" y1="384" x2="100" y2="456" stroke="white" stroke-width="2.5" stroke-linecap="round"/>
  <line x1="71" y1="394" x2="129" y2="394" stroke="white" stroke-width="2.5" stroke-linecap="round"/>
  <line x1="78" y1="410" x2="122" y2="410" stroke="white" stroke-width="2" stroke-linecap="round"/>
  <line x1="82" y1="394" x2="100" y2="412" stroke="white" stroke-width="1.5" opacity="0.4"/>
  <line x1="118" y1="394" x2="100" y2="412" stroke="white" stroke-width="1.5" opacity="0.4"/>
  <circle cx="71" cy="397" r="3.5" fill="none" stroke="white" stroke-width="1.5"/>
  <circle cx="129" cy="397" r="3.5" fill="none" stroke="white" stroke-width="1.5"/>
  <path d="M71 401 Q62 419 71 415" fill="none" stroke="white" stroke-width="1.5" stroke-linecap="round"/>
  <path d="M129 401 Q138 419 129 415" fill="none" stroke="white" stroke-width="1.5" stroke-linecap="round"/>
  <line x1="100" y1="456" x2="81" y2="472" stroke="white" stroke-width="2.5" stroke-linecap="round"/>
  <line x1="100" y1="456" x2="119" y2="472" stroke="white" stroke-width="2.5" stroke-linecap="round"/>
  <line x1="74" y1="472" x2="126" y2="472" stroke="white" stroke-width="2.5" stroke-linecap="round"/>
  <text x="100" y="488" text-anchor="middle" font-family="Montserrat,Arial,sans-serif" font-size="11" font-weight="700" fill="white" letter-spacing="1.5">RED</text>
  <text x="100" y="503" text-anchor="middle" font-family="Montserrat,Arial,sans-serif" font-size="11" font-weight="700" fill="white" letter-spacing="1.5">ELÉCTRICA</text>

  <!-- ====== BATERÍAS (255, 420) ====== -->
  <circle cx="255" cy="420" r="47" fill="white" fill-opacity="0.03" stroke="white" stroke-opacity="0.08" stroke-width="1.5"/>
  <rect x="232" y="392" width="46" height="60" rx="4" fill="none" stroke="white" stroke-width="2.5"/>
  <rect x="245" y="385" width="20" height="9" rx="2" fill="none" stroke="white" stroke-width="2"/>
  <!-- 3 charge bars -->
  <rect x="238" y="434" width="34" height="11" rx="2" fill="white" opacity="0.8"/>
  <rect x="238" y="420" width="34" height="11" rx="2" fill="white" opacity="0.6"/>
  <rect x="238" y="406" width="34" height="11" rx="2" fill="white" opacity="0.4"/>
  <text x="255" y="464" text-anchor="middle" font-family="Montserrat,Arial,sans-serif" font-size="12" font-weight="700" fill="white" letter-spacing="2">BATERÍAS</text>

</svg>
